<svg xmlns="http://www.w3.org/2000/svg" width="65.999" height="65.999" viewBox="0 0 65.999 65.999"><defs><style>.a{fill:#dbb471;}.b{fill:#e8e8e8;}.c{fill:#fff;opacity:0.5;}.d,.e{fill:#3e4347;}.d{opacity:0.15;}.f{fill:#b2c1c0;}</style></defs><g transform="translate(-2.001 -2)"><path class="a" d="M42.04,15.3,2.33,55.01c-1.1.99.66,4.4,3.74,7.59,3.08,3.08,6.49,4.84,7.59,3.74L53.37,26.63,42.04,15.3" transform="translate(0 1.33)"/><path class="b" d="M48.77,21.36,64.28,5.74a5.244,5.244,0,0,0-1.32-2.42A5.244,5.244,0,0,0,60.54,2L44.92,17.51a4.118,4.118,0,0,1-5.72,0l9.46,9.46a3.888,3.888,0,0,1,.11-5.61" transform="translate(3.72)"/><path class="c" d="M13.14,54.9a6.344,6.344,0,0,0-1.54,3.63c.11,1.65,1.43,6.93,1.43,6.93L52.41,26.08,47.13,20.8S21.61,46.32,13.14,54.9" transform="translate(0.96 1.88)"/><g transform="translate(2.66 2)"><path class="d" d="M13.16,54.58a6.344,6.344,0,0,1-3.63,1.54c-1.54-.11-6.93-1.54-6.93-1.54L41.98,15.2l5.28,5.28c0,.11-25.52,25.63-34.1,34.1" transform="translate(-2.6 -0.68)"/><path class="e" d="M48.76,25.56a4.061,4.061,0,0,1-1.1-3.3,14.072,14.072,0,0,1-3.19-1.87A26.173,26.173,0,0,1,42.6,17.2a4.061,4.061,0,0,1-3.3-1.1,27.523,27.523,0,0,0,3.3,6.16,27.523,27.523,0,0,0,6.16,3.3" transform="translate(1.07 -0.59)"/><path class="e" d="M60.64,7.72l1.87-1.98a5.244,5.244,0,0,0-1.32-2.42A5.244,5.244,0,0,0,58.77,2L56.9,3.87A4.767,4.767,0,0,1,59.21,5.3a4.606,4.606,0,0,1,1.43,2.42" transform="translate(2.83 -2)"/></g><g transform="translate(47.32 5.08)"><path class="f" d="M50.02,18.27,45.4,15.3l-.88.88a3.955,3.955,0,0,1-1.32.88l4.84,3.19.22-.22,1.76-1.76" transform="translate(-43.2 -3.75)"/><path class="f" d="M60.6,7.77,55.98,4.8,54,6.67l4.62,2.97Z" transform="translate(-42.12 -4.8)"/><path class="f" d="M57.1,11.27,52.48,8.3,50.5,10.17l4.62,2.97Z" transform="translate(-42.47 -4.45)"/><path class="f" d="M53.49,14.77,48.98,11.8,47,13.78l4.62,2.97Z" transform="translate(-42.82 -4.1)"/></g></g></svg>